<svg width="64" height="64" viewBox="0 0 64 64" fill="none" xmlns="http://www.w3.org/2000/svg">
<g clip-path="url(#clip0_107_3)">
<path d="M56.0549 16.7955C55.7339 16.7955 55.4179 16.6415 55.2249 16.3555C53.1959 13.3515 50.6439 10.7995 47.6389 8.77248C47.1809 8.46348 47.0609 7.84148 47.3689 7.38448C47.6789 6.92648 48.2989 6.80548 48.7579 7.11448C51.9759 9.28548 54.7089 12.0175 56.8829 15.2365C57.1919 15.6945 57.0709 16.3155 56.6129 16.6245C56.4409 16.7405 56.2469 16.7955 56.0549 16.7955Z" fill="#DAD4CB"/>
<path d="M44.7349 6.94067C44.5879 6.94067 44.4379 6.90767 44.2969 6.83867C41.0439 5.24567 37.5569 4.31267 33.9309 4.06567C33.3799 4.02767 32.9639 3.55067 33.0009 2.99967C33.0389 2.44867 33.4999 2.03267 34.0669 2.06967C37.9519 2.33467 41.6889 3.33467 45.1749 5.04167C45.6709 5.28467 45.8759 5.88367 45.6339 6.37967C45.4609 6.73467 45.1049 6.94067 44.7349 6.94067Z" fill="#DAD4CB"/>
<path d="M19.2619 6.93972C18.8919 6.93972 18.536 6.73372 18.363 6.37972C18.121 5.88372 18.326 5.28472 18.822 5.04172C22.308 3.33372 26.047 2.33372 29.931 2.06972C30.5 2.03672 30.96 2.44872 30.997 2.99972C31.034 3.55072 30.6179 4.02772 30.0669 4.06472C26.4409 4.31172 22.953 5.24472 19.7 6.83672C19.559 6.90672 19.4089 6.93972 19.2619 6.93972Z" fill="#DAD4CB"/>
<path d="M7.93792 16.8015C7.74592 16.8015 7.55092 16.7465 7.37892 16.6305C6.92092 16.3215 6.80092 15.6995 7.10892 15.2425C9.28192 12.0215 12.0159 9.28746 15.2349 7.11546C15.6939 6.80646 16.3139 6.92746 16.6239 7.38546C16.9329 7.84346 16.8119 8.46446 16.3539 8.77346C13.3479 10.8015 10.7949 13.3545 8.76692 16.3605C8.57492 16.6475 8.25992 16.8015 7.93792 16.8015Z" fill="#DAD4CB"/>
<path d="M3.06696 31.0015C3.04496 31.0015 3.02096 30.9995 2.99796 30.9985C2.44696 30.9605 2.03096 30.4835 2.06796 29.9335C2.33296 26.0455 3.33296 22.3065 5.03996 18.8205C5.28396 18.3245 5.88196 18.1195 6.37796 18.3625C6.87396 18.6055 7.07896 19.2045 6.83696 19.7005C5.24396 22.9525 4.31096 26.4415 4.06496 30.0695C4.02796 30.5975 3.58896 31.0015 3.06696 31.0015Z" fill="#DAD4CB"/>
<path d="M5.94096 45.7415C5.57096 45.7415 5.21496 45.5355 5.04196 45.1805C3.33396 41.6935 2.33296 37.9525 2.06796 34.0645C2.03096 33.5145 2.44696 33.0375 2.99896 32.9995C3.55096 32.9705 4.02696 33.3795 4.06396 33.9305C4.30996 37.5585 5.24396 41.0475 6.83796 44.3025C7.07996 44.7975 6.87496 45.3975 6.37896 45.6405C6.23896 45.7095 6.08896 45.7415 5.94096 45.7415Z" fill="#DAD4CB"/>
<path d="M15.8049 57.0608C15.6129 57.0608 15.4179 57.0048 15.2459 56.8898C12.0259 54.7178 9.29095 51.9848 7.11595 48.7638C6.80695 48.3058 6.92795 47.6848 7.38595 47.3748C7.84495 47.0668 8.46495 47.1868 8.77495 47.6448C10.8049 50.6518 13.3589 53.2048 16.3659 55.2318C16.8229 55.5408 16.9439 56.1628 16.6359 56.6208C16.4409 56.9058 16.1259 57.0608 15.8049 57.0608Z" fill="#DAD4CB"/>
<path d="M30.0019 61.9326C29.9799 61.9326 29.9559 61.9316 29.9329 61.9306C26.0459 61.6656 22.3089 60.6656 18.8239 58.9586C18.3279 58.7156 18.1229 58.1156 18.3649 57.6206C18.6079 57.1246 19.2099 56.9186 19.7029 57.1616C22.9549 58.7546 26.4419 59.6876 30.0699 59.9336C30.6209 59.9716 31.0369 60.4486 30.9999 60.9996C30.9629 61.5276 30.5229 61.9326 30.0019 61.9326Z" fill="#DAD4CB"/>
<path d="M33.996 61.9326C33.475 61.9326 33.035 61.5286 32.999 61.0006C32.962 60.4486 33.378 59.9726 33.929 59.9346C37.556 59.6886 41.045 58.7546 44.299 57.1616C44.796 56.9186 45.394 57.1246 45.637 57.6206C45.879 58.1166 45.674 58.7156 45.178 58.9586C41.691 60.6666 37.951 61.6666 34.066 61.9316C34.042 61.9316 34.019 61.9326 33.996 61.9326Z" fill="#DAD4CB"/>
<path d="M48.0011 57.0619C47.6801 57.0619 47.3641 56.908 47.1711 56.621C46.8621 56.164 46.9831 55.542 47.4421 55.233C50.4501 53.205 53.0041 50.651 55.0341 47.64C55.3431 47.182 55.9641 47.063 56.4231 47.37C56.8801 47.679 57.0011 48.301 56.6931 48.759C54.5181 51.983 51.7831 54.719 48.5601 56.891C48.3881 57.006 48.1941 57.0619 48.0011 57.0619Z" fill="#DAD4CB"/>
<path d="M57.862 45.7423C57.715 45.7423 57.564 45.7103 57.424 45.6403C56.928 45.3973 56.723 44.7973 56.965 44.3023C58.559 41.0493 59.492 37.5603 59.738 33.9313C59.776 33.3823 60.242 32.9583 60.804 33.0033C61.355 33.0403 61.771 33.5173 61.734 34.0683C61.469 37.9563 60.469 41.6953 58.761 45.1813C58.587 45.5363 58.232 45.7423 57.862 45.7423Z" fill="#DAD4CB"/>
<path d="M60.931 31.0015C60.41 31.0015 59.97 30.5975 59.934 30.0695C59.688 26.4405 58.754 22.9515 57.16 19.6975C56.918 19.2015 57.123 18.6025 57.618 18.3595C58.114 18.1155 58.714 18.3215 58.957 18.8175C60.665 22.3045 61.666 26.0445 61.931 29.9325C61.968 30.4845 61.552 30.9615 61 30.9985C60.977 31.0005 60.953 31.0015 60.931 31.0015Z" fill="#DAD4CB"/>
<path d="M14.006 33.5C14.006 37.08 16.916 40 20.506 40H41.746H42.006C46.416 40 50.006 36.41 50.006 32V36C50.006 40.42 46.416 44 42.006 44H41.746H20.506C16.916 44 14.006 41.09 14.006 37.5V33.5V33.5Z" fill="#CCD1D9"/>
<path d="M20.506 27H21.186C22.125 21.88 26.606 18 32.006 18C36.276 18 39.985 20.44 41.805 24H42.006C46.416 24 50.006 27.58 50.006 32C50.006 36.41 46.416 40 42.006 40H41.746H20.506C16.916 40 14.006 37.08 14.006 33.5C14.006 29.91 16.916 27 20.506 27Z" fill="#DAD4CB"/>
<path d="M1.232 30.2367C1.745 29.7237 2.419 29.4757 3.08 29.5117C3.693 29.5247 4.306 29.7747 4.769 30.2367C5.744 31.2127 5.744 32.7867 4.769 33.7617C4.305 34.2237 3.705 34.4747 3.08 34.4867C2.419 34.5237 1.745 34.2747 1.232 33.7617C0.256 32.7867 0.256 31.2127 1.232 30.2367Z" fill="#DC9428"/>
<path d="M7.53401 44.0876C8.87201 44.4376 9.66001 45.8136 9.29701 47.1496C9.13601 47.7886 8.73501 48.3006 8.21001 48.6136C7.63401 48.9756 6.93601 49.1006 6.23501 48.9126C4.90901 48.5636 4.11101 47.1876 4.47201 45.8506C4.64801 45.1506 5.10901 44.6006 5.70901 44.2876C6.24701 43.9996 6.89601 43.9116 7.53401 44.0876Z" fill="#DC9428"/>
<path d="M16.856 54.6968C18.193 54.3468 19.554 55.1348 19.919 56.4698C20.079 57.1088 19.994 57.7578 19.706 58.2938C19.393 58.8818 18.843 59.3448 18.144 59.5308C16.819 59.8818 15.445 59.0938 15.081 57.7578C14.895 57.0698 15.032 56.3578 15.381 55.7948C15.707 55.2708 16.219 54.8728 16.856 54.6968Z" fill="#DC9428"/>
<path d="M33.7781 62.7711C32.7981 63.7621 31.2041 63.7621 30.2251 62.7711C29.7101 62.2551 29.4691 61.5781 29.4971 60.9131C29.5101 60.2991 29.7591 59.6961 30.2251 59.2301C31.2041 58.2391 32.7971 58.2391 33.7781 59.2301C34.2421 59.6961 34.4791 60.2981 34.4911 60.9131C34.5321 61.5771 34.2911 62.2551 33.7781 62.7711Z" fill="#DC9428"/>
<path d="M48.617 55.7969C48.967 56.3599 49.105 57.0709 48.918 57.7579C48.554 59.0959 47.192 59.8819 45.855 59.5319C45.157 59.3449 44.606 58.8829 44.293 58.2949C44.008 57.7579 43.92 57.1089 44.081 56.4709C44.444 55.1359 45.817 54.3489 47.143 54.6979C47.78 54.8729 48.293 55.2709 48.617 55.7969Z" fill="#DC9428"/>
<path d="M57.765 48.9116C57.065 49.0996 56.366 48.9746 55.802 48.6126C55.277 48.2996 54.876 47.7876 54.703 47.1486C54.339 45.8126 55.14 44.4366 56.466 44.0866C57.104 43.9106 57.753 43.9986 58.29 44.2866C58.891 44.5996 59.352 45.1486 59.527 45.8496C59.892 47.1876 59.091 48.5626 57.765 48.9116Z" fill="#DC9428"/>
<path d="M62.77 30.237C63.745 31.213 63.745 32.787 62.77 33.762C62.257 34.275 61.582 34.524 60.919 34.487C60.307 34.475 59.694 34.224 59.232 33.762C58.255 32.786 58.255 31.212 59.232 30.237C59.694 29.775 60.306 29.525 60.919 29.512C61.593 29.477 62.257 29.725 62.77 30.237Z" fill="#DC9428"/>
<path d="M55.789 15.387C56.365 15.024 57.064 14.9 57.765 15.088C59.091 15.437 59.892 16.813 59.528 18.15C59.352 18.851 58.891 19.4 58.291 19.713C57.754 20.001 57.104 20.089 56.467 19.913C55.141 19.564 54.34 18.188 54.704 16.851C54.864 16.212 55.265 15.699 55.789 15.387Z" fill="#DC9428"/>
<path d="M45.855 4.46785C47.18 4.11785 48.553 4.90485 48.918 6.24185C49.106 6.92885 48.967 7.64085 48.617 8.20385C48.293 8.72785 47.78 9.12685 47.143 9.30285C45.818 9.65185 44.445 8.86485 44.081 7.52885C43.92 6.89085 44.008 6.24185 44.293 5.70485C44.606 5.11685 45.157 4.65485 45.855 4.46785Z" fill="#DC9428"/>
<path d="M33.7781 4.76984C32.7981 5.76184 31.2041 5.76184 30.2251 4.76984C29.7591 4.30584 29.5101 3.70284 29.4971 3.08784C29.4691 2.42184 29.7101 1.74384 30.2251 1.22984C31.2041 0.23784 32.7971 0.23784 33.7781 1.22984C34.2911 1.74384 34.5321 2.42184 34.4911 3.08784C34.4791 3.70284 34.2421 4.30584 33.7781 4.76984Z" fill="#DC9428"/>
<path d="M19.706 5.70485C19.994 6.24185 20.079 6.89085 19.919 7.52885C19.555 8.86485 18.193 9.65185 16.856 9.30285C16.218 9.12785 15.707 8.72885 15.381 8.20385C15.032 7.64085 14.896 6.92885 15.081 6.24185C15.444 4.90485 16.818 4.11785 18.144 4.46785C18.843 4.65385 19.394 5.11685 19.706 5.70485Z" fill="#DC9428"/>
<path d="M6.23501 15.0878C6.93501 14.8998 7.63301 15.0248 8.21001 15.3868C8.73501 15.6998 9.13601 16.2118 9.29701 16.8508C9.66001 18.1878 8.87201 19.5628 7.53401 19.9128C6.89601 20.0888 6.23501 19.9888 5.69801 19.7008C5.10901 19.3878 4.64801 18.8388 4.47201 18.1508C4.11101 16.8128 4.90901 15.4368 6.23501 15.0878Z" fill="#DC9428"/>
</g>
<defs>
<clipPath id="clip0_107_3">
<rect width="64" height="64" fill="white"/>
</clipPath>
</defs>
</svg>
